<svg width="160" height="160" viewBox="0 0 160 160" fill="none" xmlns="http://www.w3.org/2000/svg">
<path fill-rule="evenodd" clip-rule="evenodd" d="M129.302 15.2618C129.395 15.2246 129.496 15.2946 129.488 15.3905C129.335 17.1596 129.085 18.9052 128.732 20.6134C125.888 34.3956 116.735 46.0317 104.259 52.6888C104.222 52.7084 104.197 52.7431 104.191 52.7828C103.668 56.2346 103.589 59.7771 103.992 63.3372C103.997 63.3826 104.028 63.422 104.071 63.4407C107.527 64.9141 111.115 65.9405 114.75 66.5331C114.751 66.5332 114.752 66.5329 114.753 66.5323C114.754 66.5316 114.755 66.5313 114.756 66.5314C114.756 66.5315 114.756 66.5315 114.757 66.5316C114.758 66.5318 114.76 66.5314 114.761 66.5304C114.858 66.443 114.956 66.3561 115.054 66.2695C125.544 57.1865 139.898 52.5861 154.44 54.2588C156.257 54.4709 158.077 54.7795 159.891 55.1873C159.99 55.2094 160.028 55.3226 159.962 55.3956C158.745 56.7418 157.464 58.0146 156.123 59.1999C145.305 68.7599 130.709 73.0565 116.501 71.4668C116.459 71.4621 116.417 71.4761 116.388 71.5049C113.832 74.0054 111.579 76.827 109.705 79.9325C109.681 79.9721 109.681 80.0209 109.705 80.0605C111.59 83.184 113.858 86.0203 116.432 88.5316C116.434 88.5329 116.436 88.5336 116.438 88.5334C116.438 88.5333 116.439 88.5333 116.439 88.5332C116.44 88.5331 116.441 88.5335 116.442 88.5342C116.443 88.535 116.444 88.5354 116.445 88.5352C116.546 88.5229 116.648 88.5108 116.749 88.4991C130.878 86.9867 145.376 91.2874 156.131 100.792C157.47 101.979 158.751 103.246 159.967 104.59C160.033 104.663 159.995 104.776 159.896 104.798C158.079 105.207 156.253 105.521 154.436 105.73C139.776 107.416 125.313 102.732 114.801 93.5029C114.77 93.4757 114.728 93.4637 114.686 93.4705C111.073 94.0646 107.507 95.0876 104.071 96.5523C104.028 96.571 103.997 96.6105 103.992 96.6559C103.587 100.236 103.669 103.799 104.2 107.269C104.2 107.272 104.202 107.274 104.204 107.275C104.206 107.276 104.207 107.277 104.208 107.277C104.208 107.277 104.208 107.278 104.209 107.278C104.209 107.278 104.209 107.278 104.209 107.279C104.234 107.291 104.258 107.304 104.283 107.317C116.747 113.976 125.901 125.611 128.743 139.385C129.093 141.094 129.346 142.835 129.499 144.602C129.507 144.698 129.406 144.768 129.313 144.731C127.59 144.045 125.917 143.275 124.317 142.428C112.57 136.208 104.218 125.808 100.703 113.926C100.353 112.74 100.051 111.539 99.7983 110.326C99.7982 110.326 99.7978 110.325 99.7973 110.325C99.7968 110.325 99.7964 110.324 99.7963 110.324C99.7961 110.323 99.7959 110.322 99.7957 110.321C99.7952 110.319 99.7937 110.317 99.7915 110.316C96.4852 108.764 92.9484 107.588 89.2431 106.848C89.1961 106.839 89.1473 106.854 89.1151 106.888C86.589 109.543 84.464 112.453 82.7535 115.538C82.7338 115.573 82.7327 115.615 82.7503 115.652C88.7302 128.013 88.9508 142.556 82.7348 155.296C81.9611 156.873 81.0904 158.423 80.1219 159.938C80.0694 160.021 79.9442 160.021 79.8917 159.938C78.9216 158.42 78.0445 156.859 77.2738 155.279C72.5803 145.659 71.5513 135.021 73.9026 125.067C74.6702 121.82 75.7978 118.646 77.2759 115.603C77.2763 115.602 77.2763 115.6 77.2758 115.599C77.2752 115.598 77.2752 115.597 77.2757 115.596C77.2757 115.596 77.2758 115.596 77.2759 115.596C77.2765 115.595 77.2764 115.593 77.2758 115.592C75.5601 112.487 73.4249 109.558 70.884 106.888C70.8518 106.854 70.8031 106.839 70.7561 106.848C67.0718 107.584 63.5542 108.75 60.2641 110.29C60.2263 110.307 60.1993 110.341 60.1911 110.38C57.3902 123.724 48.5816 135.612 35.6797 142.444C34.0789 143.288 32.4166 144.055 30.6968 144.739C30.6035 144.776 30.5023 144.706 30.5106 144.61C31.9026 128.545 41.7368 114.752 55.7946 107.279C55.7957 107.278 55.7964 107.277 55.7966 107.276C55.7966 107.276 55.7967 107.275 55.7967 107.275C55.7968 107.275 55.7972 107.274 55.7978 107.274C55.7983 107.273 55.7987 107.273 55.7988 107.272C56.3204 103.862 56.4092 100.362 56.0277 96.8441C56.0186 96.7591 56.0092 96.6742 55.9996 96.5893C55.9996 96.5891 55.9995 96.5891 55.9994 96.589C55.9993 96.589 55.9992 96.5889 55.9992 96.5887C55.999 96.5877 55.9989 96.5867 55.9988 96.5858C55.9986 96.5838 55.9973 96.5821 55.9954 96.5812C52.5394 95.1011 48.9497 94.0685 45.3131 93.4705C45.2715 93.4637 45.229 93.4757 45.1981 93.5029C34.6862 102.732 20.2141 107.425 5.55445 105.738C3.73816 105.526 1.91897 105.217 0.104915 104.809C0.00649528 104.787 -0.032035 104.674 0.0339287 104.601C5.30274 98.7767 11.809 94.4388 18.9014 91.6952C26.6892 88.6825 35.1911 87.5859 43.5608 88.5349C43.5615 88.535 43.5622 88.5348 43.5626 88.5343C43.5627 88.5342 43.5628 88.5341 43.563 88.534C43.5632 88.5337 43.5636 88.5336 43.5639 88.5337C43.5643 88.5337 43.5646 88.5336 43.5648 88.5333C45.8942 86.2611 47.9733 83.7227 49.7444 80.9462C49.931 80.6548 50.1147 80.3569 50.2939 80.0605C50.3179 80.0209 50.3179 79.9721 50.2939 79.9324C48.42 76.827 46.1668 74.0054 43.6111 71.5049C43.5817 71.4761 43.5399 71.4621 43.498 71.4668C29.2903 73.0564 14.6853 68.7613 3.86735 59.2013C2.52902 58.0139 1.24836 56.7471 0.0327209 55.4027C-0.0332253 55.3298 0.00554373 55.2165 0.103969 55.1944C4.50854 54.205 8.94377 53.8091 13.2934 53.9602C25.2102 54.376 36.5421 58.8904 45.1981 66.4901C45.229 66.5173 45.2715 66.5294 45.3131 66.5226C48.6212 65.9785 51.8904 65.075 55.0556 63.802C55.347 63.6853 55.6386 63.5636 55.9276 63.4407C55.9715 63.422 56.0017 63.3825 56.0068 63.3371C56.0471 62.9809 56.0826 62.6249 56.1133 62.2692C56.1771 61.5367 56.2201 60.8041 56.2426 60.0712C56.3197 57.6144 56.1705 55.1768 55.8083 52.7828C55.8023 52.7431 55.7771 52.7084 55.7403 52.6888C43.2637 46.0317 34.1049 34.3928 31.2608 20.6105C30.9117 18.9016 30.6583 17.1606 30.5055 15.3932C30.4972 15.2973 30.5985 15.2273 30.6918 15.2645C32.4141 15.95 34.0829 16.7208 35.6825 17.5676C48.5844 24.3993 57.3902 36.2696 60.1911 49.613C60.1994 49.6523 60.2263 49.6858 60.2641 49.7035C63.5542 51.2427 67.0718 52.4091 70.7561 53.1446C70.8031 53.154 70.8518 53.139 70.884 53.1051C70.9376 53.0488 70.9911 52.9923 71.0443 52.9357C72.0494 51.8707 72.9912 50.7609 73.8717 49.6074C75.1459 47.9414 76.2817 46.2002 77.2765 44.3998C77.2767 44.3994 77.2767 44.399 77.2765 44.3986C77.2763 44.3982 77.2764 44.3977 77.2766 44.3974C77.2768 44.397 77.2768 44.3965 77.2766 44.3961C77.2588 44.3604 77.2411 44.3247 77.2235 44.2889C71.2683 31.9393 71.0615 17.4273 77.2688 4.70524C78.0424 3.12738 78.9132 1.57703 79.8818 0.0616502C79.9343 -0.0205507 80.0595 -0.0205495 80.112 0.0616505C81.0815 1.57849 81.9564 3.13252 82.727 4.71137C88.9431 17.4515 88.7302 31.9804 82.7503 44.3414C82.7327 44.3778 82.7338 44.42 82.7535 44.4554C84.464 47.5401 86.589 50.4503 89.1151 53.1051C89.1473 53.139 89.196 53.154 89.243 53.1446C89.4979 53.0938 89.752 53.0408 90.0052 52.9858C91.1483 52.7388 92.277 52.4484 93.392 52.1154C95.6049 51.4565 97.7439 50.6386 99.7943 49.6758C99.7947 49.6756 99.795 49.6752 99.7951 49.6748C99.7952 49.6743 99.7955 49.6739 99.7959 49.6738C99.7962 49.6736 99.7966 49.6734 99.7969 49.6733C99.798 49.6728 99.7988 49.6718 99.799 49.6707C99.8195 49.5674 99.8404 49.4642 99.8616 49.361C102.72 36.1203 111.497 24.3466 124.318 17.5579C125.919 16.7139 127.582 15.9464 129.302 15.2618ZM121.999 67.1432C121.87 67.1423 121.817 66.987 121.921 66.9141C129.638 61.5029 139.099 58.4967 148.897 58.5773C149.026 58.5784 149.079 58.7334 148.975 58.8064C141.098 64.3494 131.586 67.2066 121.999 67.1432ZM105.06 69.0593C105.034 68.9589 105.137 68.872 105.239 68.9077C106.983 69.5173 108.751 70.0288 110.535 70.4436C110.633 70.4665 110.672 70.58 110.607 70.6535C109.42 71.9863 108.305 73.3887 107.271 74.8568C107.211 74.9427 107.074 74.9299 107.033 74.8341C106.637 73.9022 106.272 72.9504 105.94 71.9796C105.609 71.0088 105.316 70.0349 105.06 69.0593ZM98.7997 55.1966C98.8934 55.1601 98.9949 55.2303 98.9874 55.3263C98.851 57.0681 98.8161 58.8256 98.8867 60.5915C98.8908 60.6948 98.7721 60.761 98.6799 60.7063C97.7833 60.174 96.9 59.608 96.0317 59.008C95.1635 58.408 94.3246 57.7839 93.5153 57.1373C93.432 57.0708 93.4615 56.9429 93.5662 56.9147C95.3537 56.4329 97.1003 55.8582 98.7997 55.1966ZM93.1608 62.7665C91.1294 61.3627 89.2428 59.8398 87.5039 58.2153C87.4734 58.1869 87.4308 58.1737 87.3886 58.1797C84.9778 58.5217 82.5104 58.699 79.9996 58.699C77.4887 58.699 75.0213 58.5217 72.6106 58.1797C72.5684 58.1737 72.5257 58.1869 72.4952 58.2153C70.7563 59.8398 68.8697 61.3627 66.8383 62.7664C64.807 64.1702 62.7013 65.4063 60.5395 66.4773C60.5017 66.4961 60.4753 66.5306 60.4683 66.5706C60.0653 68.8571 59.4801 71.1439 58.7042 73.4152C57.9283 75.6866 56.9886 77.8638 55.9016 79.9389C55.8826 79.9752 55.8826 80.0179 55.9016 80.0542C56.9886 82.1292 57.9283 84.3065 58.7042 86.5778C59.4801 88.8492 60.0653 91.1359 60.4682 93.4224C60.4753 93.4624 60.5017 93.497 60.5395 93.5157C62.7013 94.5868 64.8069 95.8228 66.8383 97.2266C68.8697 98.6304 70.7563 100.153 72.4952 101.778C72.5257 101.806 72.5683 101.819 72.6105 101.813C75.0213 101.471 77.4887 101.294 79.9996 101.294C82.5105 101.294 84.9778 101.471 87.3886 101.813C87.4308 101.819 87.4735 101.806 87.5039 101.778C89.2429 100.153 91.1295 98.6304 93.1608 97.2266C95.1922 95.8228 97.2979 94.5868 99.4596 93.5157C99.4974 93.497 99.5238 93.4624 99.5308 93.4224C99.9338 91.1359 100.519 88.8492 101.295 86.5778C102.071 84.3065 103.011 82.1293 104.098 80.0542C104.117 80.0179 104.117 79.9752 104.098 79.9389C103.011 77.8638 102.071 75.6866 101.295 73.4152C100.519 71.1439 99.9338 68.8571 99.5308 66.5706C99.5238 66.5306 99.4974 66.4961 99.4596 66.4773C97.2978 65.4063 95.1921 64.1702 93.1608 62.7665ZM79.8835 49.4223C79.9368 49.3404 80.0623 49.3404 80.1156 49.4223C81.0815 50.9077 82.1394 52.349 83.2878 53.7382C83.355 53.8195 83.2999 53.9394 83.1914 53.9467C82.1371 54.0173 81.0728 54.0532 79.9996 54.0532C78.9264 54.0532 77.862 54.0173 76.8077 53.9467C76.6992 53.9394 76.6441 53.8195 76.7113 53.7382C77.8597 52.349 78.9176 50.9077 79.8835 49.4223ZM80.1262 38.0315C80.0854 38.1481 79.9137 38.1481 79.8729 38.0315C76.847 29.3787 76.7646 19.8915 79.8729 11.0531C79.9138 10.9369 80.0853 10.9369 80.1262 11.0531C83.2345 19.8915 83.1522 29.3787 80.1262 38.0315ZM54.0589 88.0135C54.3906 88.9843 54.6836 89.9582 54.9387 90.9337C54.965 91.0341 54.8621 91.121 54.76 91.0854C53.0161 90.4758 51.248 89.9642 49.4643 89.5494C49.3659 89.5266 49.3271 89.413 49.3926 89.3395C50.5793 88.0067 51.6936 86.6044 52.7278 85.1362C52.7883 85.0503 52.9253 85.0631 52.966 85.159C53.3625 86.0909 53.7273 87.0426 54.0589 88.0135ZM11.1024 101.416C10.9735 101.415 10.9205 101.26 11.0241 101.187C18.9011 95.6437 28.4127 92.7864 37.9997 92.8499C38.1288 92.8507 38.1819 93.0061 38.0779 93.079C30.3611 98.4901 20.9003 101.496 11.1024 101.416ZM79.8729 121.962C79.9137 121.845 80.0854 121.845 80.1262 121.962C83.1521 130.614 83.2345 140.101 80.1262 148.94C80.0853 149.056 79.9138 149.056 79.8729 148.94C76.7647 140.101 76.847 130.614 79.8729 121.962ZM83.1914 106.046C83.2999 106.054 83.3551 106.174 83.2878 106.255C82.1394 107.644 81.0815 109.085 80.1156 110.571C80.0623 110.653 79.9368 110.653 79.8835 110.571C78.9176 109.085 77.8597 107.644 76.7113 106.255C76.6441 106.174 76.6992 106.054 76.8077 106.046C77.862 105.976 78.9264 105.94 79.9996 105.94C81.0728 105.94 82.1371 105.976 83.1914 106.046ZM61.0117 104.667C61.0042 104.763 61.1057 104.833 61.1994 104.796C62.8988 104.135 64.6454 103.56 66.4329 103.078C66.5376 103.05 66.5671 102.922 66.4838 102.856C65.6745 102.209 64.8356 101.585 63.9674 100.985C63.0991 100.385 62.2158 99.8191 61.3192 99.2868C61.227 99.232 61.1083 99.2982 61.1124 99.4016C61.183 101.167 61.1481 102.925 61.0117 104.667ZM106.035 46.1169C105.93 46.1884 105.791 46.0924 105.83 45.9753C108.729 37.2833 114.526 29.562 122.502 24.1494C122.607 24.0782 122.746 24.174 122.707 24.291C119.76 33.1791 113.83 40.8084 106.035 46.1169ZM107.271 85.1362C107.211 85.0503 107.074 85.0631 107.033 85.159C106.637 86.0909 106.272 87.0426 105.94 88.0134C105.609 88.9842 105.316 89.9582 105.06 90.9337C105.034 91.0341 105.137 91.121 105.239 91.0854C106.983 90.4758 108.751 89.9642 110.535 89.5494C110.633 89.5266 110.672 89.413 110.607 89.3395C109.42 88.0067 108.305 86.6044 107.271 85.1362ZM148.975 101.187C149.079 101.26 149.026 101.415 148.897 101.416C139.099 101.496 129.638 98.4901 121.921 93.079C121.817 93.0061 121.87 92.8507 121.999 92.8499C131.586 92.7864 141.098 95.6437 148.975 101.187ZM54.1688 114.018C54.2079 113.901 54.069 113.805 53.9639 113.876C46.1687 119.185 40.2393 126.814 37.2921 135.702C37.2534 135.819 37.3921 135.915 37.497 135.844C45.4735 130.431 51.2697 122.71 54.1688 114.018ZM11.1024 58.5773C10.9735 58.5784 10.9205 58.7335 11.0241 58.8064C18.9011 64.3493 28.4127 67.2066 37.9997 67.1432C38.1288 67.1423 38.1819 66.987 38.0779 66.9141C30.3611 61.5029 20.9003 58.4968 11.1024 58.5773ZM49.4643 70.4436C49.3659 70.4665 49.3271 70.58 49.3926 70.6535C50.5793 71.9863 51.6936 73.3887 52.7278 74.8568C52.7883 74.9427 52.9253 74.9299 52.966 74.8341C53.3625 73.9022 53.7273 72.9504 54.0589 71.9796C54.3906 71.0088 54.6836 70.0349 54.9387 69.0593C54.965 68.9589 54.8621 68.872 54.76 68.9077C53.0161 69.5173 51.248 70.0288 49.4643 70.4436ZM37.2921 24.291C37.2534 24.174 37.3921 24.0782 37.497 24.1494C45.4735 29.562 51.2697 37.2833 54.1688 45.9753C54.2079 46.0924 54.069 46.1884 53.9639 46.1169C46.1687 40.8084 40.2393 33.1791 37.2921 24.291ZM61.3192 60.7063C61.227 60.761 61.1083 60.6948 61.1124 60.5915C61.183 58.8255 61.1482 57.0681 61.0117 55.3263C61.0042 55.2303 61.1057 55.1601 61.1994 55.1966C62.8988 55.8582 64.6454 56.4329 66.433 56.9147C66.5376 56.9429 66.5671 57.0708 66.4838 57.1373C65.6745 57.7838 64.8356 58.408 63.9674 59.008C63.0991 59.608 62.2158 60.174 61.3192 60.7063ZM105.83 114.018C105.791 113.901 105.93 113.805 106.035 113.876C113.83 119.185 119.76 126.814 122.707 135.702C122.746 135.819 122.607 135.915 122.502 135.844C114.526 130.431 108.729 122.71 105.83 114.018ZM98.6799 99.2868C98.7721 99.232 98.8908 99.2982 98.8867 99.4016C98.8161 101.167 98.851 102.925 98.9874 104.667C98.9949 104.763 98.8934 104.833 98.7997 104.796C97.1003 104.135 95.3537 103.56 93.5662 103.078C93.4616 103.05 93.4321 102.922 93.5153 102.856C94.3246 102.209 95.1635 101.585 96.0318 100.985C96.9 100.385 97.7833 99.8191 98.6799 99.2868Z" fill="#9E8068"/>
</svg>
